<?xml version="1.0" standalone="no"?>
<!DOCTYPE svg PUBLIC "-//W3C//DTD SVG 20010904//EN"
 "http://www.w3.org/TR/2001/REC-SVG-20010904/DTD/svg10.dtd">
<svg version="1.0" xmlns="http://www.w3.org/2000/svg" x="0px" y="0px"
 width="364pt" height="364pt" xml:space="preserve">

<g transform="translate(0.000000,564.000000) scale(0.100000,-0.100000)"
fill="#000000" stroke="none">
<path d="M3262 3803 c-12 -3 -37 -20 -56 -39 l-33 -34 -540 0 c-533 0 -563 -2
-563 -31 0 -4 7 -15 16 -23 14 -14 78 -16 553 -16 l537 0 17 -30 c10 -16 22
-30 28 -30 5 0 9 -34 9 -75 l0 -75 -295 0 c-269 0 -962 -24 -1010 -35 -12 -2
-99 -5 -194 -5 -154 -1 -177 0 -198 17 -14 10 -68 78 -121 152 -53 74 -109
144 -125 155 -19 14 -48 21 -92 24 -36 2 -65 2 -65 -1 0 -11 200 -740 221
-809 20 -65 23 -67 48 -62 72 17 124 73 136 147 13 76 59 127 116 127 11 0
187 -34 392 -76 205 -41 439 -88 521 -105 83 -16 153 -32 157 -36 3 -5 14 -33
24 -63 28 -87 91 -202 145 -263 87 -97 232 -178 371 -208 l49 -11 0 -74 0 -74
-53 0 c-71 0 -141 36 -186 95 -35 48 -64 57 -80 27 -21 -39 50 -126 139 -170
l55 -27 454 2 c314 2 465 6 490 14 113 37 217 173 149 195 -17 5 -26 1 -38
-17 -36 -57 -77 -91 -130 -109 -30 -10 -58 -16 -62 -14 -5 3 -8 39 -8 80 l0
74 76 0 c42 0 94 5 115 12 90 26 169 134 169 231 0 31 -4 47 -12 47 -7 -1
-138 2 -290 5 -249 4 -283 7 -333 26 -105 39 -185 119 -224 224 -19 50 -21 78
-21 255 0 113 -4 201 -9 205 -6 3 -44 11 -85 17 l-76 13 0 77 c0 63 4 82 19
97 10 10 23 27 28 36 9 16 49 18 553 19 495 1 544 2 553 18 8 12 7 21 -2 32
-12 14 -73 16 -557 16 l-543 0 -21 29 c-25 36 -70 53 -118 44z m132 -499 c14
-13 16 -54 16 -290 0 -171 -4 -283 -10 -295 -10 -17 -23 -19 -163 -19 -106 0
-157 4 -165 12 -17 17 -17 579 0 596 8 8 58 12 159 12 121 0 150 -3 163 -16z
m576 -985 l0 -82 -77 7 c-42 3 -172 6 -290 6 l-213 0 0 75 0 75 290 0 290 0 0
-81z"/>
<path d="M3122 3258 c-9 -9 -12 -79 -12 -255 l0 -243 23 -5 c12 -3 65 -5 117
-3 l95 3 3 249 c2 193 -1 251 -10 258 -21 13 -202 10 -216 -4z"/>
<path d="M3581 3213 c-2 -191 9 -245 62 -315 42 -55 108 -105 157 -118 23 -6
140 -9 299 -8 l260 3 -51 74 c-67 97 -215 251 -304 317 -101 75 -233 148 -331
183 -46 17 -86 31 -88 31 -2 0 -4 -75 -4 -167z"/>
</g>
</svg>
