<?xml version="1.0" standalone="no"?>
<!DOCTYPE svg PUBLIC "-//W3C//DTD SVG 20010904//EN"
 "http://www.w3.org/TR/2001/REC-SVG-20010904/DTD/svg10.dtd">
<svg version="1.0" xmlns="http://www.w3.org/2000/svg"
 width="664.000000pt" height="664.000000pt" viewBox="0 0 564.000000 564.000000"
 preserveAspectRatio="xMidYMid meet">

<g transform="translate(0.000000,564.000000) scale(0.100000,-0.100000)"
fill="#000000" stroke="none">
<path d="M2655 4974 c-235 -27 -336 -48 -489 -101 -545 -189 -879 -615 -912
-1165 -11 -176 30 -337 145 -561 93 -183 220 -373 472 -706 371 -491 459 -620
507 -748 22 -59 31 -73 51 -75 22 -3 29 -17 68 -133 24 -71 43 -135 43 -142 0
-9 -28 -13 -97 -15 l-98 -3 -3 -255 c-2 -169 1 -269 9 -297 12 -45 49 -86 92
-102 18 -7 156 -11 380 -11 393 0 399 1 444 69 23 33 23 39 23 317 l0 284 -95
0 c-70 0 -95 3 -95 13 0 7 19 71 43 142 40 120 46 130 70 133 15 2 27 9 27 15
0 31 75 177 145 284 43 65 162 228 264 363 485 638 619 856 707 1145 25 81 27
105 27 235 -1 710 -542 1230 -1362 1310 -96 9 -298 11 -366 4z m-5 -110 c0 -8
-4 -14 -9 -14 -5 0 -34 -23 -65 -51 -194 -177 -307 -580 -310 -1104 -1 -168 3
-220 22 -325 56 -303 137 -626 303 -1198 50 -172 88 -319 85 -328 -5 -12 -21
-14 -83 -12 l-78 3 -138 260 c-486 912 -627 1260 -627 1544 0 296 88 606 234
824 137 206 369 363 611 415 45 10 55 7 55 -14z m500 -16 c433 -140 708 -568
736 -1148 16 -324 -100 -622 -623 -1605 l-138 -260 -78 -3 c-62 -2 -78 0 -83
12 -3 9 30 141 75 293 207 714 301 1103 332 1373 19 173 -4 517 -51 744 -28
138 -83 298 -133 385 -40 72 -141 188 -181 209 -12 6 -17 16 -13 25 7 18 46
11 157 -25z m-150 -3238 c13 -8 8 -28 -30 -142 l-45 -133 -103 -3 c-56 -1
-102 -1 -102 0 0 2 -20 61 -45 131 -25 71 -45 132 -45 137 0 5 8 10 18 13 37
8 338 7 352 -3z"/>
</g>
</svg>
